<?xml version="1.0" encoding="UTF-8"?>
<svg width="80" height="80" viewBox="0 0 80 80" fill="none" xmlns="http://www.w3.org/2000/svg">
  <rect width="80" height="80" rx="12" fill="#F3F4F6"/>
  <path d="M40 28C34.477 28 30 32.477 30 38C30 43.523 34.477 48 40 48C45.523 48 50 43.523 50 38C50 32.477 45.523 28 40 28ZM46.293 36.707L39.293 43.707C38.902 44.098 38.098 44.098 37.707 43.707L33.707 39.707C33.316 39.316 33.316 38.684 33.707 38.293C34.098 37.902 34.731 37.902 35.122 38.293L38.5 41.671L44.878 35.293C45.269 34.902 45.902 34.902 46.293 35.293C46.684 35.684 46.684 36.316 46.293 36.707Z" fill="#9CA3AF"/>
</svg>